<svg width="100%" height="100%" viewBox="0 0 40 40" xmlns="http://www.w3.org/2000/svg" xml:space="preserve" style="fill-rule:evenodd;clip-rule:evenodd;stroke-linejoin:round;stroke-miterlimit:2;">
    <circle cx="20" cy="20" r="16" style="fill:#fd0;"/>
    <path d="M8.201,18.846L7.2,18.846L7.2,20.5L8.137,20.5L8.137,23.312C8.137,24.651 8.923,25.111 10.577,25.111C11.019,25.111 11.363,25.076 11.526,25.053L11.526,23.481C11.462,23.486 11.276,23.492 11.113,23.492C10.624,23.492 10.338,23.306 10.338,22.84L10.338,20.5L11.52,20.5L11.52,18.846L10.338,18.846L10.338,17.437L8.201,17.437L8.201,18.846Z" style="fill:#0057b7;fill-rule:nonzero;"/>
    <path d="M17.298,22.806C16.415,22.806 15.775,22.303 15.775,21.1L15.775,14.712L12.768,14.712L12.768,21.527C12.768,23.803 14.489,25.288 17.298,25.288C20.108,25.288 21.828,23.803 21.828,21.527L21.828,14.712L18.821,14.712L18.821,21.1C18.821,22.28 18.181,22.806 17.298,22.806Z" style="fill:#0057b7;fill-rule:nonzero;"/>
    <path d="M25.613,25.105L26.138,23.027L29.077,23.027L29.587,25.105L32.8,25.105L29.617,14.712L25.841,14.712L22.636,25.105L25.613,25.105ZM27.699,17.248L28.582,20.895L26.648,20.895L27.554,17.248L27.699,17.248Z" style="fill:#0057b7;fill-rule:nonzero;"/>
</svg>
