<?xml version="1.0" encoding="UTF-8" standalone="no"?>
<!DOCTYPE svg PUBLIC "-//W3C//DTD SVG 1.1//EN" "http://www.w3.org/Graphics/SVG/1.1/DTD/svg11.dtd">
<svg width="100%" height="100%" viewBox="0 0 500 500" version="1.1" xmlns="http://www.w3.org/2000/svg" xmlns:xlink="http://www.w3.org/1999/xlink" xml:space="preserve" xmlns:serif="http://www.serif.com/" style="fill-rule:evenodd;clip-rule:evenodd;stroke-linejoin:round;stroke-miterlimit:2;">
    <path d="M500,100L500,400C500,455.192 455.192,500 400,500L100,500C44.808,500 0,455.192 0,400L0,100C0,44.808 44.808,0 100,0L400,0C455.192,0 500,44.808 500,100Z" style="fill:rgb(29,9,59);"/>
    <g>
        <path d="M393.749,393.75L393.749,297.242C338.77,295.016 306.944,263.672 298.273,203.212L298.273,297.242C299.49,359.683 331.316,391.852 393.749,393.75ZM106.25,105.016L106.25,201.524C161.23,203.751 192.875,235.094 201.186,295.554L201.186,201.524C199.969,139.083 168.324,106.914 106.25,105.016Z" style="fill:rgb(90,95,199);"/>
        <path d="M106.288,105C217.928,105.006 285.402,105.006 308.711,105C343.674,104.994 393.75,122.545 393.75,203.2L298.993,203.2L298.993,302.334C298.993,342.261 319.978,393.211 393.75,393.211C393.786,393.211 321.776,393.211 285.288,393.211C248.8,393.211 201.121,371.133 201.121,302.334L201.121,203.2C201.121,147.872 169.51,115.138 106.288,105Z" style="fill:rgb(254,216,1);"/>
    </g>
</svg>
