<?xml version="1.0" encoding="UTF-8" standalone="no"?>
<!DOCTYPE svg PUBLIC "-//W3C//DTD SVG 1.1//EN" "http://www.w3.org/Graphics/SVG/1.1/DTD/svg11.dtd">
<svg width="100%" height="100%" viewBox="0 0 500 500" version="1.1" xmlns="http://www.w3.org/2000/svg" xmlns:xlink="http://www.w3.org/1999/xlink" xml:space="preserve" xmlns:serif="http://www.serif.com/" style="fill-rule:evenodd;clip-rule:evenodd;stroke-linejoin:round;stroke-miterlimit:2;">
    <g>
        <path d="M449.133,450L449.133,316.309C372.971,313.225 328.884,269.806 316.872,186.052L316.872,316.309C318.558,402.808 362.645,447.371 449.133,450ZM50.866,50.023L50.866,183.713C127.028,186.798 170.866,230.217 182.379,313.971L182.379,183.713C180.694,97.215 136.856,52.651 50.866,50.023Z" style="fill:rgb(109,109,109);"/>
        <path d="M50.918,50C205.571,50.009 299.042,50.009 331.331,50C379.765,49.992 449.134,74.305 449.134,186.034L317.869,186.034L317.869,323.363C317.869,378.673 346.939,449.253 449.134,449.253C449.184,449.253 349.43,449.253 298.884,449.253C248.338,449.253 182.289,418.669 182.289,323.363L182.289,186.034C182.289,109.389 138.498,64.044 50.918,50Z" style="fill:rgb(35,31,32);"/>
    </g>
</svg>
