<svg width="100%" height="100%" viewBox="0 0 40 40" version="1.1" xmlns="http://www.w3.org/2000/svg" xmlns:xlink="http://www.w3.org/1999/xlink" xml:space="preserve" xmlns:serif="http://www.serif.com/" style="fill-rule:evenodd;clip-rule:evenodd;stroke-linejoin:round;stroke-miterlimit:2;">
    <circle cx="20" cy="20" r="16" style="fill:#fd0;"/>
    <path d="M7.137,18.742L6.045,18.742L6.045,20.545L7.067,20.545L7.067,23.611C7.067,25.071 7.924,25.572 9.727,25.572C10.209,25.572 10.584,25.534 10.761,25.509L10.761,23.795C10.692,23.801 10.489,23.807 10.311,23.807C9.778,23.807 9.467,23.604 9.467,23.096L9.467,20.545L10.755,20.545L10.755,18.742L9.467,18.742L9.467,17.206L7.137,17.206L7.137,18.742Z" style="fill:#0057b7;fill-rule:nonzero;"/>
    <path d="M17.054,23.059C16.092,23.059 15.394,22.511 15.394,21.199L15.394,14.235L12.115,14.235L12.115,21.664C12.115,24.146 13.991,25.765 17.054,25.765C20.117,25.765 21.993,24.146 21.993,21.664L21.993,14.235L18.715,14.235L18.715,21.199C18.715,22.486 18.017,23.059 17.054,23.059Z" style="fill:#0057b7;fill-rule:nonzero;"/>
    <path d="M26.119,25.566L26.692,23.3L29.896,23.3L30.452,25.566L33.955,25.566L30.485,14.235L26.368,14.235L22.873,25.566L26.119,25.566ZM28.393,16.999L29.356,20.975L27.248,20.975L28.236,16.999L28.393,16.999Z" style="fill:#0057b7;fill-rule:nonzero;"/>
</svg>
